{"title":"Bangkok Dangerous 2008 DVDrip English Klam","uid":6491676,"size":1556092265,"categoryP":"video","categoryS":"movies","magnet":"?xt=urn:btih:2793b5cc7dd8335ede32f1ae2fdbe930c3f0802c&amp;dn=Bangkok+Dangerous+2008+DVDrip+English+Klam&amp;tr=udp%3A%2F%2Ftracker.openbittorrent.com%3A80&amp;tr=udp%3A%2F%2Fopen.demonii.com%3A1337&amp;tr=udp%3A%2F%2Ftracker.coppersurfer.tk%3A6969&amp;tr=udp%3A%2F%2Fexodus.desync.com%3A6969","seeders":0,"leechers":1,"uploader":"Klambake","files":-1,"time":1308909646,"description":"With: Nicolas Cage, Shahkrit Yamnarm and Charlie Yeung\n\nEen professionele huurmoordenaar (Nicolas Cage) verblijft in Bangkok om een aantal klussen af te handelen. Maar dat blijkt lastiger dan gedacht, en hij ondervindt de nodige tegenwerking. Dan valt hij ook nog eens voor een lokale schoonheid en moet hij een van zijn weinige vertrouwelingen te vriend zien te houden.\n\nA hitman who's in Bangkok to pull off a series of jobs falls for a local woman and bonds with his errand boy. \n\n------------------ Dutch Friends ------------------\nYou can find my Friends at: http://www.Film-Test.nl \n  ------ They got my dutchs subs ---- and more ------\n\nGeneral:\n\nComplete name                    : Bangkok Dangerous\\Bangkok Dangerous.avi\nFormat                           : AVI\nFormat/Info                      : Audio Video Interleave\nFile size                        : 1.45 GiB\nDuration                         : 1h 34mn\nOverall bit rate                 : 2 186 Kbps\n\nVideo:\n\nFormat                           : MPEG-4 Visual\nFormat profile                   : Simple@L3\nFormat settings, BVOP            : No\nFormat settings, QPel            : No\nFormat settings, GMC             : No warppoints\nFormat settings, Matrix          : Default (H.263)\nCodec ID                         : XVID\nCodec ID/Hint                    : XviD\nDuration                         : 1h 34mn\nBit rate                         : 1 792 Kbps\nWidth                            : 652 pixels\nHeight                           : 352 pixels\nDisplay aspect ratio             : 1.852\nFrame rate                       : 25.000 fps\nColor space                      : YUV\nChroma subsampling               : 4:2:0\nBit depth                        : 8 bits\nScan type                        : Progressive\nBits/(Pixel*Frame)               : 0.312\nStream size                      : 1.19 GiB (82%)\nWriting library                  : XviD 1.1.2 (UTC 2006-11-01)\n\nAudio:\n\nFormat                           : AC-3\nFormat/Info                      : Audio Coding 3\nMode extension                   : CM (complete main)\nCodec ID                         : 2000\nDuration                         : 1h 34mn\nBit rate mode                    : Constant\nBit rate                         : 384 Kbps\nChannel(s)                       : 6 channels\nChannel positions                : Front: L C R, Side: L R, LFE\nSampling rate                    : 48.0 KHz\nBit depth                        : 16 bits\nStream size                      : 260 MiB (18%)\nAlignment                        : Aligned on interleaves\nInterleave, duration             : 32 ms (0.80 video frame)\nInterleave, preload duration     : 704 ms\n\n\n","torrent":{"xt":"urn:btih:2793b5cc7dd8335ede32f1ae2fdbe930c3f0802c","amp;dn":"Bangkok+Dangerous+2008+DVDrip+English+Klam","amp;tr":["udp%3A%2F%2Ftracker.openbittorrent.com%3A80","udp%3A%2F%2Fopen.demonii.com%3A1337","udp%3A%2F%2Ftracker.coppersurfer.tk%3A6969","udp%3A%2F%2Fexodus.desync.com%3A6969"],"infoHash":"2793b5cc7dd8335ede32f1ae2fdbe930c3f0802c","infoHashBuffer":{"type":"Buffer","data":[39,147,181,204,125,216,51,94,222,50,241,174,47,219,233,48,195,240,128,44]},"announce":[],"urlList":[]}}